<svg width="33" height="32" viewBox="0 0 33 32" fill="none" xmlns="http://www.w3.org/2000/svg">
<g id="Icons_Mesa de trabajo 2">
<path id="Shape" fill-rule="evenodd" clip-rule="evenodd" d="M0.970459 16C0.970459 24.8366 8.1339 32 16.9705 32C25.8029 31.99 32.9605 24.8324 32.9705 16C32.9705 7.16344 25.807 0 16.9705 0C8.1339 0 0.970459 7.16344 0.970459 16ZM2.2932 15.9999C2.2932 7.89391 8.86437 1.32274 16.9703 1.32274C25.0725 1.33188 31.6383 7.8977 31.6474 15.9999C31.6474 24.1058 25.0763 30.677 16.9703 30.677C8.86437 30.677 2.2932 24.1058 2.2932 15.9999Z" fill="white"/>
<path id="Path" d="M14.2278 12.5984H17.6373V14.1126C17.673 14.0858 17.7061 14.0559 17.7361 14.0232C18.4222 12.9014 19.4668 12.3891 20.7792 12.3499C21.484 12.3146 22.1891 12.4152 22.8535 12.6458C24.0506 13.0843 24.6997 13.9835 24.9367 15.1501C25.0896 15.9264 25.1711 16.7143 25.1802 17.5046C25.2136 19.529 25.1927 21.5542 25.193 23.5791C25.193 23.6327 25.1871 23.6864 25.1826 23.7636H21.6194C21.6194 23.6636 21.6194 23.5671 21.6194 23.4706C21.6188 21.6257 21.6329 19.7806 21.6078 17.9361C21.5981 17.4339 21.5256 16.9348 21.3918 16.4496C21.2512 15.8459 20.7058 15.4118 20.0677 15.3956C19.7735 15.3684 19.4769 15.3788 19.1855 15.4264C18.4359 15.5607 18.0482 16.0625 17.9076 16.7523C17.8336 17.1139 17.7948 17.4814 17.7918 17.8501C17.7796 19.7219 17.7846 21.5938 17.7836 23.4657C17.7836 23.5626 17.7836 23.6594 17.7836 23.7716H14.2278V12.5984Z" fill="white"/>
<path id="Path_2" d="M12.8564 23.7716H9.19922V12.343H12.8564V23.7716Z" fill="white"/>
<path id="Path_3" d="M12.8562 8.92343C12.8524 9.75557 12.3476 10.5035 11.5773 10.8183C10.807 11.1331 9.92292 10.9528 9.3374 10.3615C8.75188 9.77021 8.58026 8.88439 8.9026 8.1172C9.22494 7.35002 9.97773 6.85261 10.8099 6.85696C11.3559 6.85753 11.8791 7.07608 12.2633 7.46408C12.6475 7.85207 12.8609 8.37741 12.8562 8.92343Z" fill="white"/>
</g>
</svg>
